<svg width="64" height="64" viewBox="0 0 64 64" fill="none" xmlns="http://www.w3.org/2000/svg">
<path d="M57.92 20.25C57.8315 19.941 57.6699 19.658 57.4489 19.4247C57.2278 19.1914 56.9538 19.0149 56.65 18.91L14.08 4.32C13.3341 4.06495 12.5453 3.95937 11.7585 4.00931C10.9718 4.05924 10.2027 4.26372 9.49502 4.61104C8.78736 4.95837 8.15509 5.44174 7.63432 6.03353C7.11356 6.62532 6.71451 7.31393 6.45999 8.06001L3.53999 16.57C2.68084 19.079 2.85348 21.8264 4.01994 24.2081C5.18639 26.5898 7.25113 28.4106 9.75999 29.27L30.14 36.27L27.54 42.48L27.48 42.64C27.311 43.1308 26.9577 43.5366 26.4949 43.7718C26.0321 44.0069 25.4961 44.0529 25 43.9L16.4 41.12C15.8963 40.9553 15.4786 40.5973 15.2386 40.1248C14.9986 39.6523 14.9559 39.1039 15.12 38.6L15.74 36.69C15.9031 36.1848 15.8588 35.6354 15.6169 35.1628C15.375 34.6902 14.9552 34.3331 14.45 34.17C13.9448 34.0069 13.3954 34.0512 12.9228 34.2931C12.4502 34.535 12.0931 34.9548 11.93 35.46L11.31 37.36C10.8183 38.8731 10.9477 40.5195 11.6696 41.9372C12.3916 43.3549 13.6471 44.4278 15.16 44.92L15.98 45.19L4.58999 56.59C4.38063 56.7693 4.21059 56.9899 4.09054 57.2381C3.97049 57.4862 3.90303 57.7565 3.8924 58.0319C3.88176 58.3073 3.92817 58.582 4.02872 58.8386C4.12927 59.0953 4.28178 59.3284 4.47669 59.5233C4.6716 59.7182 4.9047 59.8707 5.16135 59.9713C5.418 60.0718 5.69266 60.1182 5.9681 60.1076C6.24354 60.097 6.5138 60.0295 6.76193 59.9095C7.01006 59.7894 7.2307 59.6194 7.40999 59.41L20.25 46.58L23.72 47.7C25.2174 48.1866 26.8462 48.0652 28.2548 47.3618C29.6635 46.6584 30.7393 45.4294 31.25 43.94L33.84 37.77C33.8737 37.6969 33.8973 37.6195 33.91 37.54L38.63 39.16C39.2509 39.3739 39.9033 39.482 40.56 39.48C41.4564 39.4831 42.342 39.2852 43.1519 38.9011C43.9618 38.5169 44.6753 37.9561 45.24 37.26L57.55 22.06C57.7526 21.8103 57.8921 21.5154 57.9565 21.2003C58.0209 20.8852 58.0084 20.5592 57.92 20.25V20.25ZM20.92 15.13C20.7864 15.5256 20.5323 15.8695 20.1933 16.1134C19.8544 16.3573 19.4476 16.489 19.03 16.49C18.809 16.4868 18.5898 16.4497 18.38 16.38L12.71 14.43C12.4483 14.3564 12.2044 14.2302 11.9932 14.0591C11.782 13.888 11.6078 13.6757 11.4814 13.4351C11.3549 13.1944 11.2789 12.9306 11.2579 12.6596C11.2368 12.3886 11.2713 12.1161 11.359 11.8588C11.4468 11.6016 11.5862 11.3649 11.7685 11.1633C11.9508 10.9617 12.1723 10.7994 12.4195 10.6863C12.6666 10.5731 12.9342 10.5116 13.206 10.5053C13.4777 10.4991 13.7479 10.5483 14 10.65L19.68 12.59C19.9299 12.6735 20.1608 12.8055 20.3595 12.9785C20.5582 13.1516 20.7208 13.3621 20.8379 13.5981C20.955 13.8342 21.0242 14.091 21.0418 14.3539C21.0593 14.6168 21.0247 14.8805 20.94 15.13H20.92ZM60.56 28.23L53.56 37.23C53.3987 37.4377 53.1979 37.6116 52.9693 37.7417C52.7407 37.8717 52.4886 37.9554 52.2276 37.9879C51.9666 38.0204 51.7017 38.0011 51.4482 37.9311C51.1946 37.8612 50.9574 37.7418 50.75 37.58C50.5422 37.4187 50.3684 37.2179 50.2383 36.9893C50.1083 36.7607 50.0246 36.5086 49.9921 36.2476C49.9596 35.9866 49.9788 35.7217 50.0488 35.4682C50.1188 35.2146 50.2382 34.9774 50.4 34.77L57.4 25.77C57.7262 25.351 58.2055 25.0787 58.7325 25.013C59.2595 24.9474 59.7909 25.0938 60.21 25.42C60.629 25.7462 60.9013 26.2255 60.967 26.7525C61.0326 27.2795 60.8862 27.811 60.56 28.23V28.23Z" fill="#142439"/>
</svg>
